<?xml version="1.0" encoding="UTF-8" standalone="no"?>
<!-- Created with Inkscape (http://www.inkscape.org/) -->
<svg
   xmlns:dc="http://purl.org/dc/elements/1.1/"
   xmlns:cc="http://web.resource.org/cc/"
   xmlns:rdf="http://www.w3.org/1999/02/22-rdf-syntax-ns#"
   xmlns:svg="http://www.w3.org/2000/svg"
   xmlns="http://www.w3.org/2000/svg"
   xmlns:sodipodi="http://sodipodi.sourceforge.net/DTD/sodipodi-0.dtd"
   xmlns:inkscape="http://www.inkscape.org/namespaces/inkscape"
   width="163.45657"
   height="96.779808"
   id="svg2168"
   sodipodi:version="0.32"
   inkscape:version="0.45.1"
   version="1.0"
   sodipodi:docbase="D:\Eigene Dateien"
   sodipodi:docname="aldus_leaf_unicode2619.svg"
   inkscape:output_extension="org.inkscape.output.svg.inkscape">
  <defs
     id="defs2170" />
  <sodipodi:namedview
     id="base"
     pagecolor="#ffffff"
     bordercolor="#666666"
     borderopacity="1.0"
     inkscape:pageopacity="0.0"
     inkscape:pageshadow="2"
     inkscape:zoom="4.8375"
     inkscape:cx="77.5"
     inkscape:cy="80"
     inkscape:document-units="px"
     inkscape:current-layer="layer1"
     width="155px"
     height="160px"
     inkscape:window-width="1280"
     inkscape:window-height="975"
     inkscape:window-x="1356"
     inkscape:window-y="-4" />
  <metadata
     id="metadata2173">
    <rdf:RDF>
      <cc:Work
         rdf:about="">
        <dc:format>image/svg+xml</dc:format>
        <dc:type
           rdf:resource="http://purl.org/dc/dcmitype/StillImage" />
      </cc:Work>
    </rdf:RDF>
  </metadata>
  <g
     inkscape:label="Ebene 1"
     inkscape:groupmode="layer"
     id="layer1"
     transform="translate(-302.82041,-527.40975)">
    <path
       id="path2229"
       d="M 429.81961,603.49982 L 429.81961,604.99625 L 429.81961,606.10231 L 429.75456,607.27342 L 429.68951,608.5096 L 429.59195,609.77831 L 429.46186,610.9169 L 429.39681,611.79523 L 429.33177,612.3808 L 429.33177,612.70611 L 429.33177,613.19407 L 429.39681,613.68203 L 429.46186,614.17 L 429.55943,614.65797 L 429.68951,615.14593 L 429.88464,615.60137 L 430.07979,616.0568 L 430.30744,616.51223 L 430.53509,616.96767 L 430.82779,617.4231 L 431.15302,617.846 L 431.51076,618.26891 L 431.8685,618.69181 L 432.29129,619.11472 L 432.71409,619.53762 L 433.20191,619.92799 L 433.68974,620.31837 L 434.17758,620.67621 L 434.69793,621.03404 L 435.21829,621.32683 L 435.77117,621.6196 L 436.32404,621.87985 L 436.87692,622.10757 L 437.46232,622.33529 L 438.08025,622.53048 L 438.66564,622.69313 L 439.31609,622.82326 L 439.93401,622.92085 L 440.58445,623.01844 L 441.26742,623.0835 L 441.91786,623.11603 L 442.60083,623.11603 L 443.60902,623.11603 L 444.58469,623.05097 L 445.52783,622.95338 L 446.47098,622.82326 L 447.3816,622.6606 L 448.25969,622.43288 L 449.10527,622.17264 L 449.95085,621.87985 L 450.76391,621.55454 L 451.54443,621.1967 L 452.32497,620.7738 L 453.07298,620.35089 L 453.78847,619.86292 L 454.47143,619.34243 L 455.1544,618.75688 L 455.80484,618.17131 L 456.45529,617.52069 L 457.04068,616.87007 L 457.59357,616.15439 L 458.14644,615.40618 L 458.66679,614.65797 L 459.1221,613.84469 L 459.57741,612.99888 L 460.00021,612.12054 L 460.39047,611.24221 L 460.7157,610.29881 L 461.04091,609.32288 L 461.36614,608.31442 L 461.62632,607.30596 L 461.85397,606.23243 L 462.04911,605.12638 L 462.24424,603.98779 L 466.27699,602.58896 L 465.88673,601.38531 L 465.43142,600.18166 L 464.94358,599.01054 L 464.3907,597.90449 L 463.77278,596.79843 L 463.12234,595.75744 L 462.76459,595.23694 L 462.37433,594.71644 L 461.98406,594.19595 L 461.5938,593.70798 L 461.39866,591.98383 L 461.13848,590.32475 L 460.97588,589.51148 L 460.81326,588.69821 L 460.65065,587.88493 L 460.45552,587.10418 L 460.22786,586.32344 L 460.00021,585.57522 L 459.77255,584.82701 L 459.51237,584.0788 L 459.2522,583.33059 L 458.99202,582.61491 L 458.69932,581.89922 L 458.3741,581.21607 L 458.04888,580.50038 L 457.72365,579.81723 L 457.36591,579.16661 L 457.00816,578.51599 L 456.6179,577.86537 L 456.22764,577.21475 L 455.83736,576.59666 L 455.41458,575.97857 L 454.95927,575.36049 L 454.53648,574.77492 L 454.04865,574.18937 L 453.59334,573.63634 L 453.1055,573.05078 L 452.58515,572.49776 L 452.06479,571.97726 L 451.54443,571.45676 L 450.99156,570.93626 L 450.40616,570.41577 L 449.85328,569.9278 L 449.26788,569.43984 L 448.64995,568.98441 L 448.03204,568.49643 L 447.41412,568.07353 L 446.76367,567.6181 L 446.11323,567.19519 L 445.43026,566.77229 L 444.7473,566.38192 L 444.06433,565.99154 L 442.63335,565.24334 L 441.13733,564.52765 L 439.60879,563.87703 L 438.0152,563.25894 L 436.35656,562.67338 L 434.63289,562.15289 L 432.87669,561.69745 L 431.05545,561.27454 L 429.20168,560.88418 L 427.28287,560.52634 L 427.6081,559.94077 L 427.99836,559.35522 L 428.42115,558.80219 L 428.90899,558.28169 L 429.49438,557.79373 L 430.07979,557.3383 L 430.76275,556.91539 L 431.51076,556.49249 L 432.29129,556.13465 L 433.13687,555.7768 L 434.04749,555.4515 L 434.99063,555.15872 L 436.03135,554.89847 L 437.10458,554.67075 L 438.24285,554.47557 L 439.41365,554.28038 L 440.09661,554.21531 L 440.68202,554.11772 L 441.20238,554.02012 L 441.62517,553.95507 L 442.66588,553.79242 L 443.67406,553.59723 L 444.64973,553.40204 L 445.56035,553.17432 L 446.47098,552.94661 L 447.31655,552.71889 L 448.12961,552.45864 L 448.91013,552.16586 L 449.65815,551.90562 L 450.37363,551.5803 L 451.02407,551.28752 L 451.67453,550.96221 L 452.25992,550.60438 L 452.8128,550.24653 L 453.33316,549.88869 L 453.82099,549.49832 L 454.2763,549.07542 L 454.69909,548.65251 L 455.08935,548.19708 L 455.47963,547.74164 L 455.80484,547.25367 L 456.09754,546.73318 L 456.39024,546.21269 L 456.6179,545.65966 L 456.84555,545.10663 L 457.04068,544.52107 L 457.2033,543.90298 L 457.33339,543.28489 L 457.43095,542.63427 L 457.49599,541.98365 L 457.52852,541.26797 L 457.56104,540.58481 L 457.56104,540.03179 L 457.52852,539.47876 L 457.46347,538.92573 L 457.39843,538.40524 L 457.30086,537.88474 L 457.2033,537.39678 L 457.07321,536.87628 L 456.9106,536.38832 L 456.74798,535.93288 L 456.55285,535.44491 L 456.3252,534.98948 L 456.09754,534.53405 L 455.83736,534.07861 L 455.57719,533.65571 L 455.28449,533.23281 L 454.99179,532.8099 L 454.63404,532.387 L 454.30883,531.99663 L 453.91855,531.60625 L 453.52829,531.24841 L 453.13803,530.89057 L 452.71523,530.53273 L 452.25992,530.20741 L 451.80461,529.88211 L 451.31678,529.5568 L 450.82894,529.26402 L 450.30859,529.00377 L 449.78824,528.71099 L 449.23536,528.45075 L 448.64995,528.22302 L 448.06456,527.96278 L 447.47915,527.76759 L 440.22671,527.40975 L 440.61697,527.83266 L 441.00725,528.25556 L 441.36499,528.67847 L 441.69021,529.10136 L 441.98291,529.52427 L 442.24308,529.94717 L 442.50326,530.4026 L 442.73092,530.82551 L 442.92606,531.28094 L 443.12119,531.70385 L 443.25127,532.15928 L 443.38137,532.58218 L 443.47893,533.00509 L 443.54397,533.46052 L 443.5765,533.88343 L 443.60902,534.30633 L 443.5765,534.66417 L 443.54397,535.02201 L 443.51145,535.37986 L 443.4464,535.70516 L 443.34884,536.063 L 443.25127,536.42085 L 443.12119,536.77868 L 442.95857,537.13652 L 442.79596,537.49436 L 442.60083,537.85221 L 442.4057,538.21005 L 442.17804,538.56789 L 441.65769,539.28358 L 441.07228,539.99925 L 440.38932,540.74747 L 439.64131,541.46316 L 438.82826,542.21136 L 437.91763,542.92705 L 436.94197,543.67527 L 435.86873,544.42347 L 434.73046,545.13916 L 433.49461,545.88737 L 433.00678,546.21269 L 432.55147,546.47293 L 432.1612,546.70065 L 431.83598,546.86331 L 430.76275,547.57898 L 429.72204,548.29467 L 428.74637,549.04288 L 427.83575,549.75857 L 426.99018,550.50678 L 426.20964,551.25499 L 425.46163,552.03574 L 424.81119,552.78395 L 424.19326,553.59723 L 423.60787,554.44303 L 423.05499,555.32138 L 422.53463,556.1997 L 422.07932,557.14311 L 421.62401,558.11904 L 421.23374,559.16003 L 420.84347,560.20103 L 418.63197,560.46127 L 416.51803,560.78658 L 415.50984,560.98177 L 414.50165,561.14442 L 413.52598,561.37214 L 412.55031,561.56733 L 411.60717,561.79504 L 410.69655,562.0553 L 409.81845,562.31554 L 408.97287,562.57579 L 408.1273,562.86857 L 407.31424,563.12881 L 406.50119,563.45412 L 405.75318,563.74691 L 405.00516,564.10474 L 404.25715,564.43006 L 403.54167,564.82043 L 402.82618,565.17827 L 402.11069,565.56865 L 401.42772,565.99154 L 400.77728,566.41445 L 400.12684,566.86988 L 399.50891,567.32532 L 398.85847,567.78075 L 398.27306,568.26872 L 397.68767,568.78922 L 397.10227,569.30971 L 396.5494,569.83021 L 395.99651,570.38323 L 395.44364,570.96879 L 394.82572,570.64349 L 395.34607,569.66755 L 395.86643,568.72415 L 396.32174,567.78075 L 396.77705,566.83735 L 397.16731,565.92649 L 397.52506,565.01562 L 397.8828,564.10474 L 398.17551,563.22641 L 398.43569,562.34807 L 398.69586,561.50227 L 398.89099,560.65646 L 399.0536,559.81065 L 399.18369,558.99738 L 399.24873,558.21663 L 399.31378,557.43588 L 399.31378,556.65515 L 399.31378,555.61415 L 399.21622,554.60569 L 399.08613,553.59723 L 398.92352,552.6213 L 398.69586,551.67789 L 398.43569,550.7345 L 398.11046,549.82363 L 397.7202,548.91276 L 397.29741,548.06696 L 396.8421,547.22115 L 396.28922,546.40787 L 395.73634,545.59459 L 395.11842,544.81385 L 394.43546,544.06563 L 393.71997,543.31742 L 392.93943,542.60174 L 392.12637,541.95112 L 391.2808,541.3005 L 390.4027,540.71494 L 389.52459,540.16191 L 388.61398,539.67394 L 387.67083,539.21851 L 386.69516,538.79562 L 385.68698,538.43777 L 384.67879,538.11246 L 383.63808,537.81968 L 382.56485,537.59196 L 381.45909,537.39678 L 380.32082,537.23412 L 379.18254,537.13652 L 378.01174,537.07147 L 376.80842,537.03894 L 376.02788,537.03894 L 375.24735,537.07147 L 374.49935,537.104 L 373.75133,537.16905 L 372.9708,537.23412 L 372.22279,537.33171 L 371.5073,537.46183 L 370.75929,537.59196 L 370.01127,537.72209 L 369.29578,537.88474 L 368.58029,538.07993 L 367.86481,538.27512 L 367.14933,538.4703 L 366.46635,538.69802 L 365.75087,538.95827 L 365.0679,539.21851 L 364.38493,539.51129 L 363.70197,539.80408 L 363.019,540.12939 L 362.36856,540.4547 L 361.71811,540.81254 L 361.03515,541.17037 L 360.38471,541.56075 L 359.76679,541.95112 L 359.11634,542.37402 L 358.49842,542.79693 L 357.84798,543.25236 L 357.23005,543.70779 L 356.61213,544.19576 L 355.99421,544.71625 L 355.40881,545.23675 L 354.79089,545.75724 L 353.65261,546.86331 L 352.54685,548.00189 L 352.0265,548.58744 L 351.53867,549.14047 L 351.05083,549.75857 L 350.563,550.34412 L 350.10769,550.96221 L 349.65238,551.5803 L 349.22959,552.19839 L 348.8068,552.81648 L 348.41653,553.46711 L 348.0588,554.11772 L 347.66852,554.76834 L 347.34331,555.41897 L 347.01808,556.10211 L 346.69286,556.75274 L 346.40016,557.43588 L 346.10746,558.11904 L 345.84728,558.83473 L 345.5871,559.5504 L 345.35945,560.26609 L 345.13179,560.98177 L 344.93666,561.69745 L 344.74153,562.44566 L 344.57892,563.19388 L 344.4163,563.94209 L 344.28622,564.6903 L 344.15613,565.47105 L 344.05857,566.21926 L 343.96099,567.00001 L 343.89595,567.65062 L 343.83091,568.36631 L 343.76586,569.14706 L 343.66829,569.99287 L 343.60326,570.90373 L 343.50568,571.87966 L 343.40811,572.88812 L 343.31055,573.99418 L 342.92028,577.8003 L 342.53002,581.21607 L 342.33488,582.77756 L 342.10723,584.24145 L 341.9121,585.60776 L 341.68444,586.90899 L 341.45679,588.08011 L 341.22913,589.15364 L 341.00148,590.12957 L 340.77382,591.00791 L 340.51365,591.78865 L 340.28599,592.4718 L 340.02581,593.05736 L 339.76563,593.54533 L 339.31032,594.32607 L 338.78997,595.07428 L 338.23709,595.75744 L 337.61917,596.40805 L 336.96872,597.02615 L 336.28575,597.57918 L 335.53775,598.09967 L 334.75721,598.58764 L 333.94416,599.01054 L 333.13111,599.40092 L 332.28552,599.72623 L 331.43995,599.98647 L 330.56185,600.18166 L 329.68375,600.31178 L 328.77313,600.40938 L 327.86251,600.44191 L 327.21206,600.44191 L 326.59414,600.37685 L 325.97622,600.31178 L 325.39081,600.21419 L 324.80542,600.11659 L 324.22002,599.95394 L 323.66715,599.79128 L 323.11427,599.59611 L 322.56139,599.33585 L 322.04103,599.10813 L 321.5532,598.81535 L 321.03285,598.49004 L 320.57754,598.16473 L 320.0897,597.8069 L 319.63439,597.41652 L 319.17907,596.99362 L 318.75629,596.57071 L 318.36603,596.11528 L 318.00827,595.62732 L 317.68306,595.17187 L 317.35783,594.68391 L 317.06513,594.16341 L 316.80495,593.64292 L 316.5773,593.12242 L 316.38217,592.5694 L 316.21956,592.01637 L 316.05695,591.46334 L 315.92686,590.87779 L 315.82929,590.29222 L 315.76425,589.67413 L 315.73173,589.05605 L 315.73173,588.43795 L 315.73173,587.81986 L 315.79677,587.13671 L 315.92686,586.42103 L 316.08946,585.67282 L 316.31712,584.82701 L 316.60982,583.85108 L 316.96757,582.74502 L 317.42288,581.54138 L 317.09766,581.02088 L 316.73992,580.53292 L 316.34964,580.07748 L 315.95938,579.65457 L 315.5366,579.26421 L 315.11381,578.9389 L 314.65849,578.61359 L 314.17066,578.3208 L 313.68283,578.06056 L 313.195,577.83284 L 312.64212,577.63765 L 312.08924,577.475 L 311.53637,577.34488 L 310.95096,577.24729 L 310.33304,577.21475 L 309.71512,577.18222 L 308.9671,577.21475 L 308.28414,577.31234 L 307.9264,577.37741 L 307.60117,577.44247 L 307.27596,577.54006 L 306.95073,577.67018 L 306.65803,577.8003 L 306.36533,577.93044 L 306.07263,578.09309 L 305.77993,578.25575 L 305.51976,578.4184 L 305.25958,578.64611 L 304.9994,578.8413 L 304.73922,579.06902 L 304.31643,579.55698 L 303.89365,580.07748 L 303.73103,580.33773 L 303.56842,580.63051 L 303.43834,580.89076 L 303.30824,581.18353 L 303.17816,581.47632 L 303.08059,581.80163 L 303.01554,582.09441 L 302.9505,582.41972 L 302.85293,583.07033 L 302.82041,583.75349 L 302.82041,584.1764 L 302.85293,584.63183 L 302.91798,585.05473 L 303.01554,585.51017 L 303.11311,585.9656 L 303.2432,586.42103 L 303.37329,586.87647 L 303.56842,587.3319 L 303.76355,587.78733 L 303.95868,588.2753 L 304.21886,588.73074 L 304.47904,589.2187 L 304.73922,589.70667 L 305.06445,590.19463 L 305.38966,590.6826 L 305.74741,591.17056 L 306.52794,592.14649 L 307.37352,593.18748 L 308.34919,594.22848 L 309.42241,595.30201 L 310.62574,596.37553 L 311.8941,597.48158 L 313.26004,598.62017 L 314.72353,599.79128 L 316.70739,601.28772 L 318.69124,602.71908 L 320.64258,604.11792 L 322.59391,605.45169 L 324.54524,606.75292 L 326.49657,608.02164 L 328.41539,609.22528 L 330.33419,610.39641 L 332.253,611.50245 L 334.17181,612.57598 L 336.09062,613.61697 L 337.97691,614.59291 L 339.86319,615.50377 L 341.74948,616.38211 L 343.63577,617.22792 L 345.48954,618.04119 L 347.34331,618.78941 L 349.19707,619.47256 L 351.01831,620.12318 L 352.87208,620.74127 L 354.6608,621.2943 L 356.48204,621.78226 L 358.27077,622.23769 L 360.05948,622.6606 L 361.84821,623.01844 L 363.6044,623.34375 L 365.3606,623.604 L 367.08428,623.79918 L 368.80796,623.99437 L 370.53163,624.09196 L 372.25531,624.15703 L 373.94646,624.18956 L 375.0197,624.18956 L 376.06041,624.15703 L 377.13364,624.12449 L 378.14183,624.05943 L 379.18254,623.99437 L 380.19073,623.89677 L 381.1664,623.79918 L 382.17458,623.66906 L 383.15025,623.53894 L 384.09339,623.37628 L 385.06905,623.1811 L 385.97967,622.98591 L 386.92282,622.79072 L 387.83344,622.563 L 388.74407,622.33529 L 389.65469,622.07504 L 390.53279,621.78226 L 391.37837,621.52202 L 392.25646,621.1967 L 393.10204,620.87139 L 393.94762,620.54608 L 394.76067,620.18823 L 395.57373,619.79787 L 396.38678,619.4075 L 397.16731,619.01712 L 397.94785,618.59422 L 398.72838,618.13879 L 399.47639,617.68335 L 400.2244,617.22792 L 400.93989,616.73995 L 401.65538,616.21946 L 402.37087,615.69896 L 403.08636,615.17846 L 403.7368,614.62543 L 404.38725,614.07241 L 405.00516,613.51938 L 405.62309,612.93382 L 406.20849,612.3808 L 406.76137,611.79523 L 407.28172,611.20968 L 407.80207,610.59158 L 408.32243,610.00603 L 408.77774,609.38794 L 409.23305,608.76985 L 409.65584,608.11923 L 410.07863,607.50114 L 410.43637,606.85052 L 410.79412,606.1999 L 411.15186,605.54928 L 411.47708,604.86612 L 411.76979,604.18297 L 412.02997,603.49982 L 412.29013,602.81667 L 412.5178,602.10099 L 412.74545,601.41784 L 412.90806,600.70216 L 413.07067,599.95394 L 413.23329,599.23826 L 413.36337,598.49004 L 413.46094,597.74184 L 413.52598,596.99362 L 413.59102,596.2454 L 413.62355,595.46466 L 413.62355,594.68391 L 413.62355,593.80557 L 413.5585,592.95976 L 413.49346,592.11396 L 413.39589,591.30068 L 413.23329,590.48741 L 413.07067,589.70667 L 412.87554,588.95845 L 412.64788,588.21024 L 412.38771,587.49456 L 412.12753,586.8114 L 411.80231,586.12825 L 411.44456,585.47763 L 411.08682,584.82701 L 410.66403,584.20892 L 410.20872,583.62337 L 409.75341,583.07033 L 409.26557,582.51731 L 408.74521,581.99681 L 408.19234,581.50884 L 407.60694,581.02088 L 407.02155,580.59798 L 406.40362,580.17507 L 405.75318,579.75217 L 405.07021,579.39433 L 404.35472,579.06902 L 403.63923,578.74371 L 402.8587,578.45093 L 402.07816,578.19068 L 401.26511,577.93044 L 400.41953,577.70272 L 399.57396,577.54006 L 398.69586,577.37741 L 398.50073,576.85691 L 399.08613,576.17376 L 399.70404,575.52314 L 400.28945,574.87252 L 400.90736,574.25442 L 401.52529,573.63634 L 402.14321,573.05078 L 402.76114,572.49776 L 403.37905,571.94473 L 404.0295,571.45676 L 404.67995,570.93626 L 405.33039,570.48083 L 405.98083,569.99287 L 406.6638,569.56996 L 407.31424,569.14706 L 407.99721,568.75669 L 408.68018,568.39884 L 409.39566,568.041 L 410.07863,567.68316 L 410.79412,567.39038 L 411.50961,567.09761 L 412.2251,566.80482 L 412.94058,566.54457 L 413.65607,566.31685 L 414.40409,566.12167 L 415.15209,565.92649 L 415.9001,565.7313 L 416.64811,565.60118 L 417.42865,565.47105 L 418.17666,565.34093 L 418.95718,565.27587 L 419.73772,565.17827 L 420.51826,565.14574 L 420.5833,566.47951 L 420.71339,567.81328 L 420.876,569.11453 L 421.10365,570.38323 L 421.36383,571.61941 L 421.65653,572.8556 L 422.01428,574.02671 L 422.40454,575.19783 L 422.85985,576.33641 L 423.34769,577.44247 L 423.86804,578.51599 L 424.45344,579.58952 L 425.07137,580.59798 L 425.75433,581.60644 L 426.46982,582.58237 L 427.21783,583.52577 L 428.03088,584.46917 L 428.9415,585.38004 L 429.91717,586.32344 L 430.92536,587.26684 L 432.06364,588.17771 L 433.23443,589.12111 L 434.5028,590.03198 L 435.83621,590.97537 L 437.23466,591.91878 L 438.69816,592.82964 L 440.25923,593.77305 L 441.88534,594.68391 L 443.5765,595.62732 L 445.33269,596.53819 L 447.18646,597.48158 L 449.10527,598.39245 L 449.04023,598.91295 L 448.94266,599.40092 L 448.84509,599.88888 L 448.715,600.37685 L 448.58492,600.83228 L 448.45482,601.28772 L 448.29222,601.71062 L 448.09709,602.13353 L 447.90195,602.55643 L 447.70681,602.9468 L 447.47915,603.33716 L 447.2515,603.69501 L 446.99132,604.05285 L 446.69863,604.41069 L 446.43845,604.736 L 446.11323,605.02878 L 445.788,605.35409 L 445.46278,605.61434 L 445.13756,605.87459 L 444.77982,606.13484 L 444.42207,606.36255 L 444.03181,606.55774 L 443.64155,606.72039 L 443.25127,606.88305 L 442.86101,607.0457 L 442.43822,607.17583 L 442.01543,607.27342 L 441.59264,607.37101 L 441.13733,607.43608 L 440.68202,607.46861 L 440.22671,607.50114 L 439.7714,607.50114 L 439.21852,607.50114 L 438.66564,607.43608 L 438.11277,607.37101 L 437.55989,607.27342 L 437.00701,607.1433 L 436.45414,606.98065 L 435.90125,606.78546 L 435.31586,606.55774 L 434.73046,606.2975 L 434.11254,606.00472 L 433.46209,605.6794 L 432.81165,605.32156 L 432.09616,604.93119 L 431.38067,604.50828 L 430.60013,604.02032 L 429.81961,603.49982 z M 450.82894,589.83679 L 449.20284,589.34883 L 447.6743,588.82833 L 446.17827,588.30783 L 444.71477,587.7548 L 443.34884,587.20178 L 442.01543,586.64875 L 440.74707,586.06319 L 439.54374,585.4451 L 438.37295,584.85954 L 437.29971,584.24145 L 436.25901,583.59083 L 435.25081,582.94021 L 434.34019,582.28959 L 433.46209,581.60644 L 432.64904,580.89076 L 431.90102,580.20761 L 431.21806,579.45939 L 430.53509,578.71118 L 429.94969,577.96296 L 429.3643,577.14969 L 428.84394,576.33641 L 428.38863,575.49061 L 427.93332,574.61227 L 427.57557,573.7014 L 427.21783,572.79053 L 426.92513,571.84714 L 426.69748,570.8712 L 426.50235,569.86274 L 426.33973,568.85428 L 426.20964,567.81328 L 426.14459,566.73976 L 426.14459,565.6337 L 426.14459,565.30839 L 427.6081,565.60118 L 429.00655,565.92649 L 430.37248,566.28433 L 431.70589,566.6747 L 432.97425,567.09761 L 434.2101,567.5205 L 435.41342,568.00847 L 436.5517,568.49643 L 437.62494,569.04946 L 438.69816,569.60249 L 439.67383,570.18805 L 440.6495,570.80614 L 441.56012,571.45676 L 442.43822,572.10738 L 443.25127,572.82306 L 444.03181,573.53875 L 444.7473,574.31949 L 445.43026,575.10023 L 446.0807,575.94604 L 446.69863,576.79185 L 447.2515,577.70272 L 447.77186,578.64611 L 448.25969,579.58952 L 448.715,580.59798 L 449.10527,581.63897 L 449.46301,582.71249 L 449.78824,583.81855 L 450.08093,584.95714 L 450.34111,586.12825 L 450.53625,587.3319 L 450.69886,588.56807 L 450.82894,589.83679 z "
       style="fill:#000000;fill-opacity:1;fill-rule:evenodd;stroke:none" />
  </g>
</svg>
